# xmcd CD database file
#
# Track frame offsets:
#	150
#	16151
#	31899
#	47475
#	62685
#	77698
#	92687
#	110682
#	126532
#	142862
#	158609
#	173800
#	189535
#	206935
#
# Disc length: 2982 seconds
#
# Revision: 0
# Processed by: cddbd v1.5.2PL0 Copyright (c) Steve Scherf et al.
# Submitted via: CDex 1.51
#
DISCID=b60ba40e
DTITLE=Relax Music Voyage - Magical Relax
DYEAR=2011
DGENRE=New Age
TTITLE0=Beneficio Del Corpo
TTITLE1=Rigenerarsi
TTITLE2=Il Piacere Del Relax
TTITLE3=Benessere
TTITLE4=Luci
TTITLE5=La Calma
TTITLE6=Massaggio Musicale
TTITLE7=Termale
TTITLE8=Elemento Rilassante
TTITLE9=Idromassaggio
TTITLE10=Ascolta Il Tuo Corpo
TTITLE11=Aria Di Bosco
TTITLE12=Paesaggio Da Sogno
TTITLE13=Risvegliarsi
EXTD=YEAR: 2011
EXTT0=
EXTT1=
EXTT2=
EXTT3=
EXTT4=
EXTT5=
EXTT6=
EXTT7=
EXTT8=
EXTT9=
EXTT10=
EXTT11=
EXTT12=
EXTT13=
PLAYORDER=
